<svg id="Layer_1" data-name="Layer 1" xmlns="http://www.w3.org/2000/svg" viewBox="0 0 708.66 708.66"><defs><style>.cls-1{fill:#fcf500;}</style></defs><title>fav-icon</title><rect x="26.86" y="13" width="654.93" height="682.67" rx="155.8"/><polygon class="cls-1" points="547.6 274.71 509.92 334.2 489.56 366.33 474.25 390.51 464.08 406.54 420.43 475.45 418.26 478.89 323.97 478.89 351.3 435.74 369.81 406.54 415.63 334.2 418.27 330.1 420.43 326.62 453.31 274.71 547.6 274.71"/><polygon class="cls-1" points="556.48 260.66 555.74 261.85 241.82 261.85 282.17 198.16 285.47 192.96 287.66 189.5 488.5 189.5 489.56 190.63 489.56 190.73 489.6 190.67 499.79 201.32 556.48 260.66"/><polygon class="cls-1" points="351.3 406.54 351.3 408.99 307.03 478.89 104.34 478.89 143.91 416.43 150.16 406.54 351.3 406.54"/></svg>