<svg id="Layer_1" data-name="Layer 1" xmlns="http://www.w3.org/2000/svg" viewBox="0 0 1133.86 1133.86"><defs><style>.cls-1{fill:#fcf500;}.cls-2{fill:#00bfff;}</style></defs><title>LOGO</title><polygon class="cls-1" points="561.11 497.41 517.08 566.93 493.28 604.48 475.39 632.74 463.5 651.48 412.49 732.02 409.95 736.03 299.76 736.03 331.7 685.61 353.33 651.48 406.88 566.93 409.97 562.14 412.49 558.08 450.91 497.41 561.11 497.41"/><polygon class="cls-1" points="571.49 480.99 570.63 482.38 203.74 482.38 250.9 407.95 254.75 401.87 257.32 397.83 492.04 397.83 493.28 399.14 493.28 399.26 493.33 399.19 505.24 411.64 571.49 480.99"/><polygon class="cls-1" points="331.7 651.48 331.7 654.35 279.96 736.03 43.07 736.03 89.32 663.04 96.62 651.48 331.7 651.48"/><path class="cls-1" d="M630.68,534.74a35.47,35.47,0,0,1,14.58,15.53q4.89,10,4.26,23.15a58.43,58.43,0,0,1-8.21,28.06,52,52,0,0,1-20,19,58.07,58.07,0,0,1-28.07,6.78H552.89l17.7-98.08h37.17Q621,529.21,630.68,534.74Zm-12.92,23.85q-5-6.44-13.82-6.43H593l-9.42,52.33h14.51a20.64,20.64,0,0,0,11.84-3.64,26.44,26.44,0,0,0,8.66-10.22,37.09,37.09,0,0,0,3.69-15.11Q622.79,565,617.76,558.59Z"/><path class="cls-1" d="M664.42,624.07a27.39,27.39,0,0,1-9.3-11.68,42.48,42.48,0,0,1-3.31-17.28,53.42,53.42,0,0,1,4.78-22.74,40.29,40.29,0,0,1,13.11-16.23A30.82,30.82,0,0,1,688,550.2a23.46,23.46,0,0,1,12.35,3.15,21.21,21.21,0,0,1,8.15,9.16l2-11.33H736.1l-13.75,76.11H696.63l1.53-8.25q-8.79,9.23-20.12,9.23A23.13,23.13,0,0,1,664.42,624.07Zm31.51-19.65a18.69,18.69,0,0,0,5.54-7.35,24.82,24.82,0,0,0,2-10.07q0-6.16-2.92-9.94a9.49,9.49,0,0,0-7.9-3.78,11.57,11.57,0,0,0-7.45,2.73,19.34,19.34,0,0,0-5.41,7.28,24.13,24.13,0,0,0-2,10q0,6.44,2.86,10.15a9.23,9.23,0,0,0,7.7,3.7A12.08,12.08,0,0,0,695.93,604.42Z"/><path class="cls-1" d="M781,575.38,777.85,593H743.1l3.18-17.63Z"/><path class="cls-1" d="M816.68,603h37.56l-4.46,24.34h-64l17.82-98.08h26.48Z"/><path class="cls-1" d="M873.21,624.07a27.29,27.29,0,0,1-9.29-11.68,42.31,42.31,0,0,1-3.31-17.28,53.41,53.41,0,0,1,4.77-22.74,40.23,40.23,0,0,1,13.12-16.23,30.77,30.77,0,0,1,18.26-5.94,23.43,23.43,0,0,1,12.35,3.15,21.21,21.21,0,0,1,8.15,9.16l2-11.33h25.59l-13.75,76.11H905.42L907,619q-8.79,9.23-20.12,9.23A23.13,23.13,0,0,1,873.21,624.07Zm31.51-19.65a18.59,18.59,0,0,0,5.54-7.35,24.66,24.66,0,0,0,2-10.07q0-6.16-2.93-9.94a9.49,9.49,0,0,0-7.9-3.78A11.54,11.54,0,0,0,894,576a19.24,19.24,0,0,0-5.41,7.28,24.13,24.13,0,0,0-2,10q0,6.44,2.86,10.15a9.24,9.24,0,0,0,7.71,3.7A12.05,12.05,0,0,0,904.72,604.42Z"/><path class="cls-1" d="M1007.53,550.06l-3.06,25.32c-1.7-.18-3-.28-3.82-.28a22.47,22.47,0,0,0-14.32,4.76A19.08,19.08,0,0,0,979,592l-6.5,35.26H946.8l13.87-76.11h25.72L984.48,562Q993.78,550.05,1007.53,550.06Z"/><path class="cls-1" d="M1090.79,551.18l-44.18,83.53q-5.86,11.06-13.56,16a32.08,32.08,0,0,1-17.76,5,29.22,29.22,0,0,1-11.84-2.24,36.23,36.23,0,0,1-9.93-6.72l12.86-17.49a10.35,10.35,0,0,0,3.69,2.8,11,11,0,0,0,4.07.7q5.36,0,9.68-5l2-2.52-15-74h26l6.36,46.87,21.65-46.87Z"/><path class="cls-2" d="M569.31,678.88h10.41l-3.31,18.23a33.12,33.12,0,0,1-8.3,4.25,26.56,26.56,0,0,1-8.87,1.63,19.55,19.55,0,0,1-10.36-2.75,18.94,18.94,0,0,1-7.07-7.58,23.08,23.08,0,0,1-2.53-10.9,25.48,25.48,0,0,1,3.31-12.89,24.42,24.42,0,0,1,9-9.11,24.74,24.74,0,0,1,12.66-3.33,23.67,23.67,0,0,1,9.14,1.86,20.9,20.9,0,0,1,7.45,5.05l-7.69,9.08a14.65,14.65,0,0,0-4.62-3.58,12,12,0,0,0-5.38-1.34,10.13,10.13,0,0,0-5.74,1.76,12.33,12.33,0,0,0-4.19,4.82,14.75,14.75,0,0,0-1.54,6.72,13.35,13.35,0,0,0,1.19,5.69,9.51,9.51,0,0,0,3.35,4,8.49,8.49,0,0,0,4.83,1.44,14.88,14.88,0,0,0,6.17-1.73Z"/><path class="cls-2" d="M619.41,667.31l-20.19,38.18a19.08,19.08,0,0,1-6.2,7.32,14.68,14.68,0,0,1-8.12,2.27,13.35,13.35,0,0,1-5.41-1A16.77,16.77,0,0,1,575,711l5.88-8a4.69,4.69,0,0,0,1.68,1.28,5.2,5.2,0,0,0,1.87.32,5.78,5.78,0,0,0,4.42-2.3l.93-1.15-6.87-33.83h11.88l2.91,21.42,9.89-21.42Z"/><path class="cls-2" d="M672.31,670.06a11.78,11.78,0,0,1,2.91,8.25,20.59,20.59,0,0,1-.29,3.19l-3.78,20.6H659.39l3.38-18.68a8.67,8.67,0,0,0,.17-1.53,4.58,4.58,0,0,0-1-3.14,3.52,3.52,0,0,0-2.76-1.15,5.37,5.37,0,0,0-4.08,2,9.93,9.93,0,0,0-2.32,5.14l-3.15,17.34H637.86l3.37-18.68a7.92,7.92,0,0,0,.18-1.53,4.58,4.58,0,0,0-1-3.14,3.52,3.52,0,0,0-2.76-1.15,5.39,5.39,0,0,0-4,2,10.18,10.18,0,0,0-2.41,5.14L628,702.1H616.27l6.28-34.79h11.76l-.76,4.47a11.57,11.57,0,0,1,9.54-4.92,10.25,10.25,0,0,1,6.38,2,10.49,10.49,0,0,1,3.69,5.47q4.77-7.49,11.47-7.48A9.86,9.86,0,0,1,672.31,670.06Z"/><path class="cls-2" d="M696.11,700.63a12.58,12.58,0,0,1-4.25-5.34,19.36,19.36,0,0,1-1.51-7.9,24.49,24.49,0,0,1,2.18-10.4,18.42,18.42,0,0,1,6-7.41,14.06,14.06,0,0,1,8.36-2.72,10.7,10.7,0,0,1,5.64,1.44,9.73,9.73,0,0,1,3.73,4.19l.93-5.18h11.69l-6.28,34.79H710.83l.7-3.78a12.35,12.35,0,0,1-9.19,4.22A10.56,10.56,0,0,1,696.11,700.63Zm14.4-9a8.45,8.45,0,0,0,2.53-3.36,11.26,11.26,0,0,0,.94-4.6,7.21,7.21,0,0,0-1.34-4.54,4.35,4.35,0,0,0-3.61-1.73,5.32,5.32,0,0,0-3.41,1.25,8.9,8.9,0,0,0-2.47,3.32,11.09,11.09,0,0,0-.93,4.58,7.41,7.41,0,0,0,1.31,4.63,4.22,4.22,0,0,0,3.52,1.7A5.51,5.51,0,0,0,710.51,691.64Z"/><path class="cls-2" d="M764.28,670a11.7,11.7,0,0,1,2.89,8.22,16.3,16.3,0,0,1-.3,3.26l-3.72,20.6H751.39l3.38-18.68a7.82,7.82,0,0,0,.17-1.53,4.63,4.63,0,0,0-1-3.14,3.53,3.53,0,0,0-2.77-1.15,5.38,5.38,0,0,0-4,2,10.27,10.27,0,0,0-2.42,5.14l-3.14,17.34H729.8l6.29-34.79h11.75l-.75,4.47a11.57,11.57,0,0,1,9.54-4.92A9.84,9.84,0,0,1,764.28,670Z"/><path class="cls-2" d="M775.84,700.63a12.51,12.51,0,0,1-4.25-5.34,19.36,19.36,0,0,1-1.52-7.9,24.34,24.34,0,0,1,2.19-10.4,18.34,18.34,0,0,1,6-7.41,14,14,0,0,1,8.35-2.72,10.74,10.74,0,0,1,5.65,1.44,9.65,9.65,0,0,1,3.72,4.19l3.2-17.85h11.76l-8.61,47.46H790.56l.7-3.78a12.35,12.35,0,0,1-9.2,4.22A10.55,10.55,0,0,1,775.84,700.63Zm14.4-9a8.45,8.45,0,0,0,2.53-3.36,11.26,11.26,0,0,0,.93-4.6,7.15,7.15,0,0,0-1.34-4.54,4.32,4.32,0,0,0-3.6-1.73,5.3,5.3,0,0,0-3.41,1.25,8.8,8.8,0,0,0-2.47,3.32,11.09,11.09,0,0,0-.93,4.58,7.34,7.34,0,0,0,1.31,4.63,4.21,4.21,0,0,0,3.52,1.7A5.54,5.54,0,0,0,790.24,691.64Z"/><path class="cls-2" d="M859.81,667.5H840.26l-1.63,9h18.21L855,686.68H836.77L834,702.1h-12.1L830,657.26h31.65Z"/><path class="cls-2" d="M876.16,667.31l-6.34,34.79H858.06l6.35-34.79Zm.73-15.07a5.66,5.66,0,0,1,1.37,3.94,7.8,7.8,0,0,1-2.16,5.59,6.91,6.91,0,0,1-5.23,2.27,4.68,4.68,0,0,1-3.64-1.5,5.62,5.62,0,0,1-1.37-3.93A7.81,7.81,0,0,1,868,653a7,7,0,0,1,5.23-2.27A4.68,4.68,0,0,1,876.89,652.24Z"/><path class="cls-2" d="M892.46,689.75a11.54,11.54,0,0,0-.12,1.16,1.61,1.61,0,0,0,.44,1.27,1.8,1.8,0,0,0,1.25.39,5.19,5.19,0,0,0,1.71-.32c.61-.21,1.37-.51,2.3-.9l1.17,9.28a14.81,14.81,0,0,1-4.19,1.53,22.57,22.57,0,0,1-4.72.51,10.07,10.07,0,0,1-7.24-2.52,9,9,0,0,1-2.65-6.82,14.44,14.44,0,0,1,.23-2.62L883,677.35h-4.37l1.52-8.25h4.36l1.75-9.66H898l-1.75,9.66H904l-1.52,8.25h-7.79Z"/><path class="cls-2" d="M938,670a11.74,11.74,0,0,1,2.88,8.22,16.33,16.33,0,0,1-.29,3.26l-3.72,20.6H925.1l3.38-18.68a8.67,8.67,0,0,0,.17-1.53,4.63,4.63,0,0,0-1-3.14,3.56,3.56,0,0,0-2.77-1.15,5.37,5.37,0,0,0-4,2,10.19,10.19,0,0,0-2.42,5.14l-3.14,17.34H903.51l6.29-34.79h11.75l-.75,4.47a11.57,11.57,0,0,1,9.54-4.92A9.84,9.84,0,0,1,938,670Z"/><path class="cls-2" d="M970.2,668.9a13.55,13.55,0,0,1,5.53,5.57,17.34,17.34,0,0,1,1.92,8.31,25.63,25.63,0,0,1-.52,5.05H955.42a5.93,5.93,0,0,0,1.81,3.91,5.83,5.83,0,0,0,4,1.34,10.37,10.37,0,0,0,6.87-2.75l5.94,6.71a18.07,18.07,0,0,1-13.21,5.5,19.82,19.82,0,0,1-9-1.91,13.91,13.91,0,0,1-5.93-5.5,16.15,16.15,0,0,1-2.1-8.32,22.14,22.14,0,0,1,2.33-10.23,17.77,17.77,0,0,1,6.4-7.1,16.9,16.9,0,0,1,9.2-2.56A17.22,17.22,0,0,1,970.2,668.9Zm-3.66,11.2a4.37,4.37,0,0,0-1.11-3.11,3.8,3.8,0,0,0-2.91-1.18,5.25,5.25,0,0,0-3.66,1.57,10.26,10.26,0,0,0-2.62,4.12h10.12A6.18,6.18,0,0,0,966.54,680.1Z"/><path class="cls-2" d="M985.07,700.85a21.54,21.54,0,0,1-7.53-5l4.77-7.48a25.15,25.15,0,0,0,5.67,4,12.21,12.21,0,0,0,5.39,1.47,3.32,3.32,0,0,0,2.06-.55,1.75,1.75,0,0,0,.73-1.5,1.68,1.68,0,0,0-1-1.37,24.24,24.24,0,0,0-3.14-1.51,48.81,48.81,0,0,1-4.86-2.36,10.8,10.8,0,0,1-3.35-3.11,8.21,8.21,0,0,1-1.45-5,11.31,11.31,0,0,1,1.63-6,11,11,0,0,1,4.56-4.12,15,15,0,0,1,6.78-1.47,22.7,22.7,0,0,1,8.12,1.56,27.07,27.07,0,0,1,7.54,4.39l-5.12,7.35a31.66,31.66,0,0,0-5.56-3.36,11.31,11.31,0,0,0-4.51-1.24,2.79,2.79,0,0,0-1.75.54,1.67,1.67,0,0,0-.69,1.37,1.85,1.85,0,0,0,1,1.51,23.09,23.09,0,0,0,3.29,1.63,41.14,41.14,0,0,1,4.89,2.43,11.63,11.63,0,0,1,3.38,3.13,8.18,8.18,0,0,1,1.45,4.93,10.78,10.78,0,0,1-6.31,10.07,15.76,15.76,0,0,1-6.9,1.44A24.37,24.37,0,0,1,985.07,700.85Z"/><path class="cls-2" d="M1016.5,700.85a21.67,21.67,0,0,1-7.54-5l4.77-7.48a25.43,25.43,0,0,0,5.68,4,12.17,12.17,0,0,0,5.38,1.47,3.38,3.38,0,0,0,2.07-.55,1.77,1.77,0,0,0,.72-1.5,1.68,1.68,0,0,0-1-1.37,23.6,23.6,0,0,0-3.14-1.51,48.81,48.81,0,0,1-4.86-2.36,10.77,10.77,0,0,1-3.34-3.11,8.22,8.22,0,0,1-1.46-5,11.31,11.31,0,0,1,1.63-6,11,11,0,0,1,4.57-4.12,15,15,0,0,1,6.78-1.47,22.78,22.78,0,0,1,8.12,1.56,27.16,27.16,0,0,1,7.53,4.39l-5.12,7.35a31.3,31.3,0,0,0-5.56-3.36,11.27,11.27,0,0,0-4.51-1.24,2.76,2.76,0,0,0-1.74.54,1.66,1.66,0,0,0-.7,1.37,1.87,1.87,0,0,0,1,1.51,22.55,22.55,0,0,0,3.29,1.63A41.69,41.69,0,0,1,1034,683a11.63,11.63,0,0,1,3.38,3.13,8.11,8.11,0,0,1,1.45,4.93,10.74,10.74,0,0,1-6.31,10.07,15.76,15.76,0,0,1-6.9,1.44A24.32,24.32,0,0,1,1016.5,700.85Z"/><path class="cls-2" d="M1051.12,692.06a5.46,5.46,0,0,1,1.37,3.9,6.85,6.85,0,0,1-1.69,4.76,5.5,5.5,0,0,1-4.3,1.89,4.61,4.61,0,0,1-3.58-1.5,5.66,5.66,0,0,1-1.37-3.94,6.7,6.7,0,0,1,1.69-4.76,5.52,5.52,0,0,1,4.25-1.82A4.72,4.72,0,0,1,1051.12,692.06Z"/></svg>